[2026-03-20T02:36:11Z][INFO] job start: render_log=C:\Users\Administrator\OneDrive\Documents\EchoesEngine_complete\EchoesEngine\jobs\job-584\render.log
[2026-03-20T02:36:11Z][INFO] audio loading: source=C:\Users\Administrator\OneDrive\Documents\EchoesEngine_complete\EchoesEngine\jobs\synthetic-test-0p3s.wav
[2026-03-20T02:36:11Z][INFO] audio loading ready: source=C:\Users\Administrator\OneDrive\Documents\EchoesEngine_complete\EchoesEngine\jobs\synthetic-test-0p3s.wav, analysis=C:\Users\Administrator\OneDrive\Documents\EchoesEngine_complete\EchoesEngine\jobs\synthetic-test-0p3s.wav
[2026-03-20T02:36:11Z][INFO] audio loading complete: samples=14400, sample_rate=48000
[2026-03-20T02:36:11Z][INFO] audio analysis complete: bass=0.000184, mid=0.999816, treble=0.000000, energy=0.088377, beat=false, tempo=96.000000
[2026-03-20T02:36:11Z][INFO] audio timeline complete: duration=0.300000s, total_frames=9, fps=30
[2026-03-20T02:36:11Z][INFO] render request overrides: width=1280, height=720, requested_duration=0.000000
[2026-03-20T02:36:11Z][INFO] scene generation start: scene_id=nebula_space
[2026-03-20T02:36:11Z][INFO] scene generation complete: scene_name=nebula_space
[2026-03-20T02:36:11Z][INFO] renderer start: backend=Vulkan
[2026-03-20T02:36:11Z][INFO] renderer start complete
[2026-03-20T02:36:11Z][INFO] scene render bootstrap complete
[2026-03-20T02:36:11Z][INFO] frame generation start: prompt="Autonomous EchoesEngine render 584 | style=nebula | camera_motion=orbital sweep | duration=37.5s", style=Nebula Bloom
[2026-03-20T02:36:11Z][INFO] frame generation complete: ai job ready
[2026-03-20T02:36:11Z][INFO] frame export start: exporting scene-driven frames to C:\Users\Administrator\OneDrive\Documents\EchoesEngine_complete\EchoesEngine\renders\job-584
[2026-03-20T02:36:11Z][INFO] frame rendering: index=0/9
[2026-03-20T02:36:18Z][INFO] frame export complete: 9 frames captured
[2026-03-20T02:36:18Z][INFO] encoding start: output=C:\Users\Administrator\OneDrive\Documents\EchoesEngine_complete\EchoesEngine\renders\job-584\video.mp4
ffmpeg version 8.1-essentials_build-www.gyan.dev Copyright (c) 2000-2026 the FFmpeg developers
  built with gcc 15.2.0 (Rev11, Built by MSYS2 project)
  configuration: --enable-gpl --enable-version3 --enable-static --disable-w32threads --disable-autodetect --enable-cairo --enable-fontconfig --enable-iconv --enable-gnutls --enable-libxml2 --enable-gmp --enable-bzlib --enable-lzma --enable-zlib --enable-libsrt --enable-libssh --enable-libzmq --enable-avisynth --enable-sdl2 --enable-libwebp --enable-libx264 --enable-libx265 --enable-libxvid --enable-libaom --enable-libopenjpeg --enable-libvpx --enable-mediafoundation --enable-libass --enable-libfreetype --enable-libfribidi --enable-libharfbuzz --enable-libvidstab --enable-libvmaf --enable-libzimg --enable-amf --enable-cuda-llvm --enable-cuvid --enable-dxva2 --enable-d3d11va --enable-d3d12va --enable-ffnvcodec --enable-libvpl --enable-nvdec --enable-nvenc --enable-vaapi --enable-openal --enable-libgme --enable-libopenmpt --enable-libopencore-amrwb --enable-libmp3lame --enable-libtheora --enable-libvo-amrwbenc --enable-libgsm --enable-libopencore-amrnb --enable-libopus --enable-libspeex --enable-libvorbis --enable-librubberband
  libavutil      60. 26.100 / 60. 26.100
  libavcodec     62. 28.100 / 62. 28.100
  libavformat    62. 12.100 / 62. 12.100
  libavdevice    62.  3.100 / 62.  3.100
  libavfilter    11. 14.100 / 11. 14.100
  libswscale      9.  5.100 /  9.  5.100
  libswresample   6.  3.100 /  6.  3.100
Input #0, image2, from 'C:\Users\Administrator\OneDrive\Documents\EchoesEngine_complete\EchoesEngine\renders\job-584\frames\frame_%04d.ppm':
  Duration: 00:00:00.30, start: 0.000000, bitrate: N/A
  Stream #0:0: Video: ppm, rgb24, 1280x720, 30 fps, 30 tbr, 30 tbn
Stream mapping:
  Stream #0:0 -> #0:0 (ppm (native) -> h264 (libx264))
Press [q] to stop, [?] for help
[libx264 @ 000001b3c82ddf80] using cpu capabilities: MMX2 SSE2Fast SSSE3 SSE4.2 AVX FMA3 BMI2 AVX2
[libx264 @ 000001b3c82ddf80] profile High, level 3.1, 4:2:0, 8-bit
[libx264 @ 000001b3c82ddf80] 264 - core 165 r3223 0480cb0 - H.264/MPEG-4 AVC codec - Copyleft 2003-2025 - http://www.videolan.org/x264.html - options: cabac=1 ref=3 deblock=1:0:0 analyse=0x3:0x113 me=hex subme=7 psy=1 psy_rd=1.00:0.00 mixed_ref=1 me_range=16 chroma_me=1 trellis=1 8x8dct=1 cqm=0 deadzone=21,11 fast_pskip=1 chroma_qp_offset=-2 threads=12 lookahead_threads=2 sliced_threads=0 nr=0 decimate=1 interlaced=0 bluray_compat=0 constrained_intra=0 bframes=3 b_pyramid=2 b_adapt=1 b_bias=0 direct=1 weightb=1 open_gop=0 weightp=2 keyint=30 keyint_min=3 scenecut=40 intra_refresh=0 rc_lookahead=30 rc=crf mbtree=1 crf=20.0 qcomp=0.60 qpmin=0 qpmax=69 qpstep=4 ip_ratio=1.40 aq=1:1.00
Output #0, mp4, to 'C:\Users\Administrator\OneDrive\Documents\EchoesEngine_complete\EchoesEngine\renders\job-584\video.mp4':
  Metadata:
    encoder         : Lavf62.12.100
  Stream #0:0: Video: h264 (avc1 / 0x31637661), yuv420p(tv, progressive), 1280x720, q=2-31, 30 fps, 15360 tbn
    Metadata:
      encoder         : Lavc62.28.100 libx264
    Side data:
      CPB properties: bitrate max/min/avg: 0/0/0 buffer size: 0 vbv_delay: N/A
[mp4 @ 000001b3c82db2c0] Starting second pass: moving the moov atom to the beginning of the file
[out#0/mp4 @ 000001b3c82dad80] video:28KiB audio:0KiB subtitle:0KiB other streams:0KiB global headers:0KiB muxing overhead: 3.144676%
frame=    9 fps=0.0 q=-1.0 Lsize=      29KiB time=00:00:00.23 bitrate=1016.6kbits/s speed=2.88x elapsed=0:00:00.08    
[libx264 @ 000001b3c82ddf80] frame I:1     Avg QP:17.08  size: 14000
[libx264 @ 000001b3c82ddf80] frame P:8     Avg QP:18.42  size:  1757
[libx264 @ 000001b3c82ddf80] mb I  I16..4: 55.2% 38.7%  6.1%
[libx264 @ 000001b3c82ddf80] mb P  I16..4:  0.6%  0.1%  0.0%  P16..4: 17.0%  2.3%  1.5%  0.0%  0.0%    skip:78.6%
[libx264 @ 000001b3c82ddf80] 8x8 transform intra:37.5% inter:77.1%
[libx264 @ 000001b3c82ddf80] coded y,uvDC,uvAC intra: 20.4% 67.6% 3.2% inter: 1.5% 5.5% 0.0%
[libx264 @ 000001b3c82ddf80] i16 v,h,dc,p:  3% 18%  1% 79%
[libx264 @ 000001b3c82ddf80] i8 v,h,dc,ddl,ddr,vr,hd,vl,hu: 17% 28% 14%  6%  9%  5% 10%  5%  6%
[libx264 @ 000001b3c82ddf80] i4 v,h,dc,ddl,ddr,vr,hd,vl,hu: 28% 30% 19%  3% 10%  3%  5%  1%  1%
[libx264 @ 000001b3c82ddf80] i8c dc,h,v,p: 35% 29% 12% 24%
[libx264 @ 000001b3c82ddf80] Weighted P-Frames: Y:0.0% UV:0.0%
[libx264 @ 000001b3c82ddf80] ref P L0: 88.3%  0.1%  9.1%  2.6%
[libx264 @ 000001b3c82ddf80] kb/s:748.24
[2026-03-20T02:36:18Z][INFO] encoding complete: video=C:\Users\Administrator\OneDrive\Documents\EchoesEngine_complete\EchoesEngine\renders\job-584\video.mp4
[2026-03-20T02:36:18Z][INFO] job complete: scene=nebula_space, style=Nebula Bloom, camera=(8.152980, 48.969322, 201.800262)
[2026-03-20T06:06:32Z][INFO] job start: render_log=C:\Users\Administrator\OneDrive\Documents\EchoesEngine_complete\EchoesEngine\jobs\job-584\render.log
[2026-03-20T06:06:32Z][INFO] audio loading: source=C:\Users\Administrator\OneDrive\Documents\EchoesEngine_complete\EchoesEngine\jobs/synthetic-test-0p3s.wav
[2026-03-20T06:06:32Z][INFO] audio loading ready: source=C:\Users\Administrator\OneDrive\Documents\EchoesEngine_complete\EchoesEngine\jobs/synthetic-test-0p3s.wav, analysis=C:\Users\Administrator\OneDrive\Documents\EchoesEngine_complete\EchoesEngine\jobs/synthetic-test-0p3s.wav
[2026-03-20T06:06:32Z][INFO] audio loading complete: samples=14400, sample_rate=48000
[2026-03-20T06:06:32Z][INFO] audio analysis complete: bass=0.000184, mid=0.999816, treble=0.000000, energy=0.088377, beat=false, tempo=96.000000
[2026-03-20T06:06:32Z][INFO] audio timeline complete: duration=10.000000s, total_frames=300, fps=30
[2026-03-20T06:06:32Z][INFO] render request overrides: width=1280, height=720, requested_duration=10.000000
[2026-03-20T06:06:32Z][INFO] scene generation start: scene_id=nebula_space
[2026-03-20T06:06:32Z][INFO] scene generation complete: scene_name=nebula_space
[2026-03-20T06:06:32Z][INFO] renderer start: backend=Vulkan
[2026-03-20T06:06:32Z][INFO] renderer start complete
[2026-03-20T06:06:32Z][INFO] scene render bootstrap complete
[2026-03-20T06:06:32Z][INFO] frame generation start: prompt="A cinematic celestial bloom drifting through neon dust", style=Nebula Bloom
[2026-03-20T06:06:32Z][INFO] frame generation complete: ai job ready
[2026-03-20T06:06:32Z][INFO] frame export start: exporting scene-driven frames to C:\Users\Administrator\OneDrive\Documents\EchoesEngine_complete\EchoesEngine\renders\job-584
[2026-03-20T06:06:32Z][INFO] frame rendering: index=0/300
[2026-03-20T06:06:42Z][INFO] frame rendering: index=10/300
[2026-03-20T06:06:52Z][INFO] frame rendering: index=20/300
[2026-03-20T06:07:02Z][INFO] frame rendering: index=30/300
[2026-03-20T06:07:13Z][INFO] frame rendering: index=40/300
[2026-03-20T06:07:23Z][INFO] frame rendering: index=50/300
[2026-03-20T06:07:35Z][INFO] frame rendering: index=60/300
[2026-03-20T06:07:49Z][INFO] frame rendering: index=70/300
[2026-03-20T06:08:01Z][INFO] frame rendering: index=80/300
[2026-03-20T06:08:16Z][INFO] frame rendering: index=90/300
[2026-03-20T06:08:30Z][INFO] frame rendering: index=100/300
[2026-03-20T06:08:40Z][INFO] frame rendering: index=110/300
[2026-03-20T06:08:55Z][INFO] frame rendering: index=120/300
[2026-03-20T06:09:06Z][INFO] frame rendering: index=130/300
[2026-03-20T06:09:17Z][INFO] frame rendering: index=140/300
[2026-03-20T06:09:30Z][INFO] frame rendering: index=150/300
[2026-03-20T06:09:43Z][INFO] frame rendering: index=160/300
[2026-03-20T06:09:57Z][INFO] frame rendering: index=170/300
[2026-03-20T06:10:08Z][INFO] frame rendering: index=180/300
[2026-03-20T06:10:20Z][INFO] frame rendering: index=190/300
[2026-03-20T06:10:34Z][INFO] frame rendering: index=200/300
[2026-03-20T06:10:54Z][INFO] frame rendering: index=210/300
[2026-03-20T06:11:08Z][INFO] frame rendering: index=220/300
[2026-03-20T06:11:22Z][INFO] frame rendering: index=230/300
[2026-03-20T06:11:33Z][INFO] frame rendering: index=240/300
[2026-03-20T06:11:43Z][INFO] frame rendering: index=250/300
[2026-03-20T06:11:54Z][INFO] frame rendering: index=260/300
[2026-03-20T06:12:03Z][INFO] frame rendering: index=270/300
[2026-03-20T06:12:14Z][INFO] frame rendering: index=280/300
[2026-03-20T06:12:24Z][INFO] frame rendering: index=290/300
[2026-03-20T06:12:33Z][INFO] frame export complete: 300 frames captured
[2026-03-20T06:12:33Z][INFO] encoding start: output=C:\Users\Administrator\OneDrive\Documents\EchoesEngine_complete\EchoesEngine\renders\job-584\video.mp4
ffmpeg version 8.1-essentials_build-www.gyan.dev Copyright (c) 2000-2026 the FFmpeg developers
  built with gcc 15.2.0 (Rev11, Built by MSYS2 project)
  configuration: --enable-gpl --enable-version3 --enable-static --disable-w32threads --disable-autodetect --enable-cairo --enable-fontconfig --enable-iconv --enable-gnutls --enable-libxml2 --enable-gmp --enable-bzlib --enable-lzma --enable-zlib --enable-libsrt --enable-libssh --enable-libzmq --enable-avisynth --enable-sdl2 --enable-libwebp --enable-libx264 --enable-libx265 --enable-libxvid --enable-libaom --enable-libopenjpeg --enable-libvpx --enable-mediafoundation --enable-libass --enable-libfreetype --enable-libfribidi --enable-libharfbuzz --enable-libvidstab --enable-libvmaf --enable-libzimg --enable-amf --enable-cuda-llvm --enable-cuvid --enable-dxva2 --enable-d3d11va --enable-d3d12va --enable-ffnvcodec --enable-libvpl --enable-nvdec --enable-nvenc --enable-vaapi --enable-openal --enable-libgme --enable-libopenmpt --enable-libopencore-amrwb --enable-libmp3lame --enable-libtheora --enable-libvo-amrwbenc --enable-libgsm --enable-libopencore-amrnb --enable-libopus --enable-libspeex --enable-libvorbis --enable-librubberband
  libavutil      60. 26.100 / 60. 26.100
  libavcodec     62. 28.100 / 62. 28.100
  libavformat    62. 12.100 / 62. 12.100
  libavdevice    62.  3.100 / 62.  3.100
  libavfilter    11. 14.100 / 11. 14.100
  libswscale      9.  5.100 /  9.  5.100
  libswresample   6.  3.100 /  6.  3.100
Input #0, image2, from 'C:\Users\Administrator\OneDrive\Documents\EchoesEngine_complete\EchoesEngine\renders\job-584\frames\frame_%04d.ppm':
  Duration: 00:00:10.00, start: 0.000000, bitrate: N/A
  Stream #0:0: Video: ppm, rgb24, 1280x720, 30 fps, 30 tbr, 30 tbn
Stream mapping:
  Stream #0:0 -> #0:0 (ppm (native) -> h264 (libx264))
Press [q] to stop, [?] for help
[libx264 @ 00000184f4cee100] using cpu capabilities: MMX2 SSE2Fast SSSE3 SSE4.2 AVX FMA3 BMI2 AVX2
[libx264 @ 00000184f4cee100] profile High, level 3.1, 4:2:0, 8-bit
[libx264 @ 00000184f4cee100] 264 - core 165 r3223 0480cb0 - H.264/MPEG-4 AVC codec - Copyleft 2003-2025 - http://www.videolan.org/x264.html - options: cabac=1 ref=3 deblock=1:0:0 analyse=0x3:0x113 me=hex subme=7 psy=1 psy_rd=1.00:0.00 mixed_ref=1 me_range=16 chroma_me=1 trellis=1 8x8dct=1 cqm=0 deadzone=21,11 fast_pskip=1 chroma_qp_offset=-2 threads=12 lookahead_threads=2 sliced_threads=0 nr=0 decimate=1 interlaced=0 bluray_compat=0 constrained_intra=0 bframes=3 b_pyramid=2 b_adapt=1 b_bias=0 direct=1 weightb=1 open_gop=0 weightp=2 keyint=30 keyint_min=3 scenecut=40 intra_refresh=0 rc_lookahead=30 rc=crf mbtree=1 crf=20.0 qcomp=0.60 qpmin=0 qpmax=69 qpstep=4 ip_ratio=1.40 aq=1:1.00
Output #0, mp4, to 'C:\Users\Administrator\OneDrive\Documents\EchoesEngine_complete\EchoesEngine\renders\job-584\video.mp4':
  Metadata:
    encoder         : Lavf62.12.100
  Stream #0:0: Video: h264 (avc1 / 0x31637661), yuv420p(tv, progressive), 1280x720, q=2-31, 30 fps, 15360 tbn
    Metadata:
      encoder         : Lavc62.28.100 libx264
    Side data:
      CPB properties: bitrate max/min/avg: 0/0/0 buffer size: 0 vbv_delay: N/A
frame=   59 fps=0.0 q=26.0 size=       0KiB time=00:00:01.90 bitrate=   0.2kbits/s speed=3.68x elapsed=0:00:00.51    frame=  143 fps=138 q=26.0 size=     256KiB time=00:00:04.70 bitrate= 446.3kbits/s speed=4.55x elapsed=0:00:01.03    frame=  230 fps=149 q=23.0 size=     512KiB time=00:00:07.60 bitrate= 551.9kbits/s speed=4.91x elapsed=0:00:01.54    [mp4 @ 00000184f4cebf00] Starting second pass: moving the moov atom to the beginning of the file
[out#0/mp4 @ 00000184f4ceab80] video:839KiB audio:0KiB subtitle:0KiB other streams:0KiB global headers:0KiB muxing overhead: 0.244949%
frame=  300 fps=158 q=-1.0 Lsize=     841KiB time=00:00:09.93 bitrate= 693.5kbits/s speed=5.24x elapsed=0:00:01.89    
[libx264 @ 00000184f4cee100] frame I:10    Avg QP:14.24  size: 19587
[libx264 @ 00000184f4cee100] frame P:290   Avg QP:17.11  size:  2284
[libx264 @ 00000184f4cee100] mb I  I16..4: 46.2% 38.4% 15.4%
[libx264 @ 00000184f4cee100] mb P  I16..4:  0.8%  0.4%  0.0%  P16..4: 19.7%  3.7%  2.0%  0.0%  0.0%    skip:73.5%
[libx264 @ 00000184f4cee100] 8x8 transform intra:36.7% inter:88.9%
[libx264 @ 00000184f4cee100] coded y,uvDC,uvAC intra: 20.4% 65.5% 19.9% inter: 2.5% 4.4% 0.0%
[libx264 @ 00000184f4cee100] i16 v,h,dc,p:  2% 15%  1% 82%
[libx264 @ 00000184f4cee100] i8 v,h,dc,ddl,ddr,vr,hd,vl,hu: 14% 23% 15%  9% 10%  6% 11%  5%  8%
[libx264 @ 00000184f4cee100] i4 v,h,dc,ddl,ddr,vr,hd,vl,hu: 26% 30% 13%  4% 12%  5%  7%  2%  1%
[libx264 @ 00000184f4cee100] i8c dc,h,v,p: 35% 29% 11% 26%
[libx264 @ 00000184f4cee100] Weighted P-Frames: Y:0.0% UV:0.0%
[libx264 @ 00000184f4cee100] ref P L0: 82.1%  0.3% 13.0%  4.7%
[libx264 @ 00000184f4cee100] kb/s:686.61
[2026-03-20T06:12:35Z][INFO] encoding complete: video=C:\Users\Administrator\OneDrive\Documents\EchoesEngine_complete\EchoesEngine\renders\job-584\video.mp4
[2026-03-20T06:12:35Z][INFO] job complete: scene=nebula_space, style=Nebula Bloom, camera=(-10.377602, 52.396545, 195.913422)
